<svg width="24" height="24" viewBox="0 0 24 24" fill="none" xmlns="http://www.w3.org/2000/svg">
<g id="Group 48098353">
<g id="Group">
<path id="Vector" d="M11.219 15.6925C13.163 15.6925 14.739 14.1166 14.739 12.1725C14.739 10.2285 13.163 8.65253 11.219 8.65253C9.27493 8.65253 7.69897 10.2285 7.69897 12.1725C7.69897 14.1166 9.27493 15.6925 11.219 15.6925Z" stroke="#5A6482" stroke-width="1.5" stroke-linecap="square" stroke-linejoin="round"/>
<path id="Vector_2" d="M20.029 13.5125C19.169 14.6925 17.459 16.4925 14.459 17.7025C12.359 18.5525 9.98899 18.5525 7.88899 17.7025C4.87899 16.4825 3.20899 14.6825 2.37899 13.5025C1.88899 12.8125 1.86899 11.9025 2.34899 11.2125C3.25899 9.8825 5.14899 7.6725 8.23899 6.5325C10.159 5.8225 12.299 5.8225 14.219 6.5325C17.289 7.6625 19.169 9.8525 20.089 11.1825C20.579 11.8925 20.539 12.8125 20.039 13.5025L20.029 13.5125Z" stroke="#5A6482" stroke-width="1.5" stroke-miterlimit="10" stroke-linecap="square"/>
</g>
</g>
</svg>
