<svg width="24" height="24" viewBox="0 0 24 24" fill="none" xmlns="http://www.w3.org/2000/svg">
<path d="M9.59046 14.3683C9.1236 13.7569 8.8457 13.001 8.8457 12.1673C8.8457 10.1776 10.4575 8.55469 12.4583 8.55469C13.2809 8.55469 14.0479 8.83258 14.6593 9.29945" stroke="black" stroke-width="1.2" stroke-linecap="round" stroke-linejoin="round"/>
<path d="M15.9929 11.4102C16.0484 11.6547 16.0818 11.9104 16.0818 12.166C16.0818 14.1669 14.47 15.7898 12.4691 15.7898C12.2024 15.7898 11.9467 15.7564 11.7021 15.7009" stroke="black" stroke-width="1.2" stroke-linecap="round" stroke-linejoin="round"/>
<path d="M7.07841 16.8906C5.18872 15.7679 4.03268 14.4674 3.38796 13.5448C2.88774 12.8334 2.86551 11.8996 3.35461 11.1882C4.28834 9.82096 6.23361 7.55333 9.40162 6.38617C11.3802 5.65253 13.5701 5.65253 15.5487 6.38617C16.0489 6.57514 16.5158 6.78634 16.9604 7.01977" stroke="black" stroke-width="1.2" stroke-linecap="round" stroke-linejoin="round"/>
<path d="M19.0162 8.38672C20.2056 9.3538 21.0393 10.3876 21.5617 11.1546C22.0619 11.8882 22.0286 12.8331 21.5173 13.5445C20.628 14.745 18.8717 16.6013 15.7926 17.8463C13.7584 18.6577 11.4797 18.7244 9.41211 17.9797" stroke="black" stroke-width="1.2" stroke-linecap="round" stroke-linejoin="round"/>
<path d="M5.27734 19.3617L19.639 5" stroke="black" stroke-width="1.2" stroke-linecap="round" stroke-linejoin="round"/>
</svg>
